<?xml version="1.0" standalone="no"?>
<!DOCTYPE svg PUBLIC "-//W3C//DTD SVG 20010904//EN"
 "http://www.w3.org/TR/2001/REC-SVG-20010904/DTD/svg10.dtd">
<svg version="1.0" xmlns="http://www.w3.org/2000/svg"
 width="300.000000pt" height="300.000000pt" viewBox="0 0 300.000000 300.000000"
 preserveAspectRatio="xMidYMid meet">

<g transform="translate(0.000000,300.000000) scale(0.100000,-0.100000)"
fill="#000000" stroke="none">
<path d="M1621 2231 c-11 -11 -26 -42 -34 -68 -14 -47 -146 -269 -194 -328
-97 -117 -268 -284 -389 -381 -78 -62 -144 -120 -148 -129 -19 -51 9 -114 52
-115 9 -1 91 -1 182 0 146 1 525 -32 539 -46 3 -2 8 -77 12 -167 10 -233 31
-297 94 -297 68 0 86 36 75 150 -5 47 -11 136 -13 198 l-5 112 155 0 c150 0
155 1 178 25 35 34 34 88 -2 121 -26 24 -32 25 -88 18 -58 -8 -245 -7 -252 0
-2 2 -11 71 -18 152 -8 82 -21 203 -30 269 -19 156 -19 300 0 355 16 45 19 98
7 116 -24 36 -92 44 -121 15z m-38 -526 c4 -52 14 -156 23 -230 10 -74 14
-138 11 -142 -4 -3 -93 4 -199 16 -106 12 -206 21 -223 21 -28 0 -25 4 62 85
50 47 107 106 127 133 19 26 48 55 63 66 16 10 49 49 73 86 25 38 47 67 51 65
3 -3 9 -47 12 -100z"/>
<path d="M2152 1010 c-36 -15 -103 -72 -118 -102 -49 -94 41 -232 160 -245 63
-8 132 19 157 61 22 36 25 139 6 196 -18 51 -87 100 -140 99 -23 0 -52 -4 -65
-9z"/>
</g>
</svg>
