<?xml version="1.0" standalone="no"?>
<!DOCTYPE svg PUBLIC "-//W3C//DTD SVG 20010904//EN"
 "http://www.w3.org/TR/2001/REC-SVG-20010904/DTD/svg10.dtd">
<svg version="1.0" xmlns="http://www.w3.org/2000/svg"
 width="300.000000pt" height="300.000000pt" viewBox="0 0 300.000000 300.000000"
 preserveAspectRatio="xMidYMid meet">

<g transform="translate(0.000000,300.000000) scale(0.100000,-0.100000)"
fill="#000000" stroke="none">
<path d="M1419 2153 c-26 -27 -67 -83 -94 -126 -61 -100 -115 -152 -224 -216
-95 -56 -118 -85 -105 -135 3 -15 17 -34 30 -42 21 -14 28 -14 72 0 69 23 156
78 233 146 l66 59 6 -232 c4 -128 7 -341 7 -474 l0 -243 -22 0 c-13 0 -70 6
-128 14 -120 16 -154 12 -175 -17 -16 -23 -20 -74 -6 -95 21 -34 448 -80 645
-70 67 3 81 7 97 27 27 33 25 86 -5 116 -24 24 -28 24 -134 18 l-109 -6 -7
179 c-4 98 -7 386 -6 639 1 253 2 465 1 471 -1 14 -45 34 -74 34 -14 0 -41
-19 -68 -47z"/>
<path d="M2152 1010 c-36 -15 -103 -72 -118 -102 -49 -94 41 -232 160 -245 63
-8 132 19 157 61 22 36 25 139 6 196 -18 51 -87 100 -140 99 -23 0 -52 -4 -65
-9z"/>
</g>
</svg>
