<?xml version="1.0" standalone="no"?>
<!DOCTYPE svg PUBLIC "-//W3C//DTD SVG 20010904//EN"
 "http://www.w3.org/TR/2001/REC-SVG-20010904/DTD/svg10.dtd">
<svg version="1.0" xmlns="http://www.w3.org/2000/svg"
 width="300.000000pt" height="300.000000pt" viewBox="0 0 300.000000 300.000000"
 preserveAspectRatio="xMidYMid meet">

<g transform="translate(0.000000,300.000000) scale(0.100000,-0.100000)"
fill="#000000" stroke="none">
<path d="M1250 2256 c-112 -32 -163 -78 -240 -219 -35 -65 -41 -83 -36 -113 5
-26 15 -39 40 -51 45 -21 81 -3 121 60 16 26 43 67 58 91 33 54 87 82 173 91
51 5 74 2 140 -20 101 -34 122 -47 145 -98 30 -67 25 -101 -23 -160 -76 -91
-191 -196 -260 -237 -72 -43 -98 -71 -98 -106 0 -36 11 -54 42 -70 26 -14 35
-13 83 1 30 8 57 20 61 26 25 42 171 63 238 35 83 -35 167 -171 174 -281 3
-49 -2 -80 -27 -154 -52 -154 -81 -180 -234 -206 -97 -16 -98 -16 -143 5 -30
15 -59 41 -87 79 -63 87 -121 139 -182 167 -65 30 -115 27 -140 -9 -34 -48
-10 -108 53 -127 42 -14 83 -50 145 -128 46 -58 129 -126 182 -148 54 -22 269
5 360 45 60 26 122 92 155 163 42 91 80 231 80 297 0 176 -120 374 -265 437
-36 16 -65 34 -65 42 0 7 22 37 49 65 72 77 84 106 79 196 -4 81 -38 173 -81
219 -27 29 -113 74 -195 101 -71 24 -227 28 -302 7z"/>
<path d="M2152 1010 c-36 -15 -103 -72 -118 -102 -49 -94 41 -232 160 -245 63
-8 132 19 157 61 22 36 25 139 6 196 -18 51 -87 100 -140 99 -23 0 -52 -4 -65
-9z"/>
</g>
</svg>
