<?xml version="1.0" standalone="no"?>
<!DOCTYPE svg PUBLIC "-//W3C//DTD SVG 20010904//EN"
 "http://www.w3.org/TR/2001/REC-SVG-20010904/DTD/svg10.dtd">
<svg version="1.0" xmlns="http://www.w3.org/2000/svg"
 width="300.000000pt" height="300.000000pt" viewBox="0 0 300.000000 300.000000"
 preserveAspectRatio="xMidYMid meet">

<g transform="translate(0.000000,300.000000) scale(0.100000,-0.100000)"
fill="#000000" stroke="none">
<path d="M1461 2119 c-108 -19 -176 -62 -300 -188 -62 -64 -126 -134 -142
-155 -47 -64 -35 -126 27 -142 40 -10 76 12 154 99 192 210 225 232 337 230
73 -1 119 -18 140 -52 7 -11 4 -49 -9 -126 -17 -100 -22 -116 -64 -178 -93
-136 -252 -284 -467 -434 -44 -32 -110 -84 -145 -117 -92 -87 -111 -131 -73
-177 19 -23 25 -24 213 -30 208 -6 235 -11 558 -97 167 -44 198 -43 230 11 53
86 -8 179 -93 143 -34 -14 -44 -12 -210 29 -96 24 -225 52 -286 62 -61 9 -111
20 -111 23 0 3 25 22 55 43 30 21 99 79 153 130 55 51 135 124 179 164 131
117 195 235 229 422 14 77 15 101 5 146 -32 142 -198 226 -380 194z"/>
<path d="M2152 1010 c-36 -15 -103 -72 -118 -102 -49 -94 41 -232 160 -245 63
-8 132 19 157 61 22 36 25 139 6 196 -18 51 -87 100 -140 99 -23 0 -52 -4 -65
-9z"/>
</g>
</svg>
